<svg xmlns="http://www.w3.org/2000/svg" viewBox="0 0 223.78 132.66"><defs><style>.cls-1{fill:#fff}</style></defs><g id="Capa_2" data-name="Capa 2"><g id="Layer_4" data-name="Layer 4"><path class="cls-1" d="M223.78 65.22c-.6 13-2.54 25.5-9 36.9-11 19.57-27.89 29.71-50.33 30.49-10 .34-19.65-1.06-28.77-5.26-13.88-6.39-24-16.71-29.44-30.92-7.8-20.43-7.88-41.23.76-61.38 9.43-21.89 26.59-33.49 50.49-34.89 11.11-.64 21.95.52 32.06 5.42 17.33 8.4 27.73 22.39 31.78 41 1.33 6.13 1.67 12.42 2.45 18.64zm-42.86-.47c-.24-4.34-.33-8.71-.76-13a36 36 0 00-4.34-14.89 15.19 15.19 0 00-25.35-1.63 28.6 28.6 0 00-5.12 11.69A100.35 100.35 0 00143.93 79c.6 5.87 1.76 11.62 4.85 16.78 3.34 5.59 8.32 8 14.8 7.58 6.11-.44 10.36-3.55 12.95-9a27.2 27.2 0 001.72-4.83c2.13-8.13 2.41-16.44 2.67-24.78z"/><path class="cls-1" d="M37.06 2.08v52.27l.35.21c.4-.53.82-1.05 1.18-1.6Q55.06 28.34 71.48 3.7a3.5 3.5 0 013.34-1.8c10.31.07 20.62 0 30.93 0h2.32c-.63 1-1 1.61-1.45 2.23Q91.7 25.76 76.73 47.32a3 3 0 00-.24 3.55q19.28 38.84 38.44 77.71c.29.58.54 1.18.91 2-.72 0-1.27.12-1.82.12H74.57a2.57 2.57 0 01-2.74-1.86q-10.14-22.34-20.4-44.63c-.3-.64-.62-1.27-1-2.14-4.41 6.28-8.67 12.31-12.86 18.4a4.21 4.21 0 00-.42 2.26v27.83H0V2.08z"/></g></g></svg>