<svg xmlns="http://www.w3.org/2000/svg" viewBox="0 0 713.06 136.38"><defs><style>.cls-1{fill:#e50000}.cls-2{fill:#fff}</style></defs><g id="Capa_2" data-name="Capa 2"><g id="Layer_4" data-name="Layer 4"><path class="cls-1" d="M711.59 0c.49 6.91 1 13.81 1.47 20.88H709c-.34-5.9-.68-11.74-1-18.19-.38 1-.58 1.46-.74 1.95-1.52 4.84-3.12 9.65-4.49 14.53-.53 1.87-1.76 1.53-3.05 1.64a1.94 1.94 0 01-2.35-1.71C696 14.22 694.46 9.37 693 4.5a2.5 2.5 0 00-.69-1.21c-.33 5.85-.67 11.69-1 17.64h-3.95c.55-7 1.09-14 1.63-20.93h6.34l5 15.45c1.34-4 2.67-7.95 3.95-11.88.38-1.17.65-2.38 1-3.57zm-25.78 0a2.86 2.86 0 01.13.58c.18 2.88.17 2.88-2.63 2.88h-4.14v17.46h-3.94V3.55h-6.87V0zM441.76 134.29V5.93c.59-.06 1.16-.17 1.72-.17h33.91a3 3 0 012.23 1.1Q497.47 35 515.14 63.2c2.33 3.74 4.12 7.81 6.17 11.73a6.9 6.9 0 001 1.51c-4.25-23.33-2.06-46.87-2.74-70.5h32v128.28a12.72 12.72 0 01-1.5.16h-28.94a3 3 0 01-2.21-1.1c-12.32-19.78-24.7-39.53-36.78-59.47-3.78-6.25-6.71-13-10-19.54-.32-.62-.63-1.24-1-1.91.75 4.9 1.54 9.7 2.2 14.53a43.72 43.72 0 01.28 5.73v59.67c0 .65-.06 1.29-.09 2z"/><path class="cls-2" d="M223.78 66.6c-.6 13-2.54 25.5-9 36.9-11 19.57-27.89 29.71-50.33 30.48-10 .35-19.65-1-28.77-5.25-13.88-6.4-24-16.71-29.44-30.92-7.84-20.44-7.92-41.23.74-61.39 9.41-21.88 26.57-33.48 50.47-34.88 11.15-.65 21.99.52 32.1 5.46 17.33 8.4 27.73 22.39 31.78 41 1.33 6.09 1.67 12.39 2.45 18.6zm-42.86-.47c-.24-4.35-.33-8.71-.76-13a36 36 0 00-4.34-14.89 15.19 15.19 0 00-25.35-1.63 28.6 28.6 0 00-5.12 11.69 100.35 100.35 0 00-1.42 32.11c.6 5.87 1.76 11.62 4.85 16.78 3.34 5.59 8.32 8 14.8 7.58 6.11-.44 10.36-3.55 12.95-9a27.48 27.48 0 001.72-4.83c2.13-8.16 2.41-16.47 2.67-24.81z"/><path class="cls-1" d="M441 69c-.59 12.41-2.36 24.45-8.24 35.49-10 18.82-25.56 29.62-47 31.53-11.65 1-23-.31-33.62-5.4-14.26-6.83-24.25-17.83-29.43-32.7-6.5-18.64-6.6-37.59.35-56.09 7.18-19.07 20.43-32 40.86-36.39 13.57-2.9 27.15-2.64 40.11 2.75 19 7.9 30.23 22.49 34.56 42.39C440 56.63 440.26 62.88 441 69zm-43.12-.64c0-3.11.19-6.22 0-9.31-.48-6.48-1.39-12.9-4.78-18.63A15.23 15.23 0 00367.71 39a29.17 29.17 0 00-5.1 11.71c-2.37 10.55-2.49 21.23-1.44 31.93.58 6 1.77 11.9 5 17.15 3.37 5.49 8.31 7.87 14.71 7.41a14.65 14.65 0 0012.9-8.79 28.56 28.56 0 001.82-5c2.17-8.24 2.4-16.63 2.31-25.02z"/><path class="cls-2" d="M37.06 3.46v52.27l.35.2c.4-.53.82-1 1.18-1.59Q55.06 29.73 71.48 5.08a3.48 3.48 0 013.34-1.8c10.31.07 20.62 0 30.93 0h2.32c-.63 1-1 1.61-1.45 2.23Q91.7 27.13 76.73 48.7a3 3 0 00-.24 3.55Q95.77 91.09 114.93 130c.29.58.54 1.18.91 2-.72 0-1.27.12-1.82.12H74.57a2.57 2.57 0 01-2.74-1.86q-10.14-22.35-20.4-44.64c-.3-.65-.62-1.28-1-2.14-4.41 6.28-8.67 12.31-12.86 18.4a4.21 4.21 0 00-.42 2.26v27.82H0V3.46z"/><path class="cls-1" d="M559.13 134.27V5.93h96.56v29.38h-57.82v18.8h46.67V82.5H597.9v21.26h2.49c17.64 0 35.29 0 52.93-.05 2 0 2.57.51 2.54 2.53-.11 8.59-.05 17.18-.05 25.77v2.26zM274.51 35.49H222V5.9h100.83v22.52a6 6 0 01-1.32 4q-26 34.38-51.94 68.8c-.63.83-1.24 1.67-2.14 2.88h56.97v30.19H217.7a8.79 8.79 0 01-.14-1.12c0-7.34-.05-14.67 0-22a4.81 4.81 0 011-2.63Q245.8 73 273 37.59c.45-.59.83-1.14 1.51-2.1z"/></g></g></svg>