<svg xmlns="http://www.w3.org/2000/svg" viewBox="0 0 228.49 127.88"><g id="Capa_2" data-name="Capa 2"><g id="Layer_4" data-name="Layer 4"><path d="M228.49,62.87c-.61,12.5-2.59,24.58-9.15,35.57-11.25,18.86-28.47,28.64-51.39,29.39-10.16.33-20.06-1-29.37-5.07-14.17-6.16-24.49-16.1-30.06-29.8-8-19.7-8.09-39.75.75-59.18C118.88,12.69,136.4,1.51,160.81.16c11.34-.63,22.41.5,32.73,5.22C211.24,13.48,221.85,27,226,44.94,227.35,50.81,227.69,56.89,228.49,62.87Zm-43.76-.45c-.25-4.19-.34-8.4-.78-12.57a33.23,33.23,0,0,0-4.43-14.36,16,16,0,0,0-25.88-1.57,26.94,26.94,0,0,0-5.23,11.27,91.49,91.49,0,0,0-1.45,31c.61,5.66,1.8,11.21,4.95,16.18,3.42,5.39,8.49,7.76,15.11,7.31,6.24-.43,10.59-3.42,13.23-8.68A25.91,25.91,0,0,0,182,86.29C184.18,78.47,184.46,70.46,184.73,62.42Z"/><path d="M37.84,2V52.39l.36.2c.4-.51.83-1,1.21-1.54Q56.21,27.32,73,3.57A3.61,3.61,0,0,1,76.4,1.83c10.52.07,21,0,31.57,0h2.38c-.64.92-1,1.54-1.49,2.14Q93.62,24.83,78.35,45.62A2.76,2.76,0,0,0,78.1,49Q97.78,86.47,117.35,124c.29.56.56,1.13.93,1.9-.73.05-1.3.11-1.86.11-13.43,0-26.85,0-40.28,0a2.63,2.63,0,0,1-2.8-1.79c-6.9-14.36-13.88-28.7-20.83-43-.3-.61-.63-1.22-1-2C47,85.17,42.61,91,38.33,96.85A3.86,3.86,0,0,0,37.9,99c0,8.22,0,16.43,0,24.65v2.17H0V2Z"/></g></g></svg>