<svg xmlns="http://www.w3.org/2000/svg" viewBox="0 0 728.08 133.55"><g id="Capa_2" data-name="Capa 2"><g id="Layer_4" data-name="Layer 4"><path d="M726.57,0c.5,6.66,1,13.32,1.51,20.13h-4.15c-.35-5.69-.7-11.32-1.08-17.54-.38,1-.59,1.41-.75,1.88-1.55,4.66-3.18,9.31-4.59,14-.53,1.8-1.79,1.48-3.11,1.58a2,2,0,0,1-2.4-1.65c-1.39-4.71-2.92-9.38-4.39-14.07a2.49,2.49,0,0,0-.71-1.17c-.34,5.64-.69,11.27-1,17h-4c.56-6.79,1.11-13.49,1.66-20.18H710c1.68,4.92,3.37,9.85,5.09,14.9,1.38-3.9,2.73-7.67,4-11.46.39-1.13.67-2.29,1-3.44Z"/><path d="M700.25,0a2.83,2.83,0,0,1,.13.56c.18,2.77.18,2.77-2.68,2.77h-4.23V20.16h-4V3.42h-7V0Z"/><path d="M548.64,131.64c-5.5,0-11,0-16.55,0a5.34,5.34,0,0,1-4.11-2.05L522.33,121C511.8,105,500.91,88.55,490.42,72.19c-1.83-2.84-3.47-5.81-5-8.77,0,.25.08.49.11.74a40.89,40.89,0,0,1,.31,5.8q0,26.24,0,52.45v5.08c0,.46,0,.92-.06,1.41l-.13,2.63H448.85V3.83l2-.19.52-.06c.44-.05.94-.11,1.47-.12H456c10.33,0,21,0,31.5,0a5.4,5.4,0,0,1,4.13,2c11,16.32,23.75,35.33,36.28,54.28.53.8,1,1.63,1.52,2.46-1.24-11.9-1.13-23.85-1-35.51.06-6.88.13-14-.09-21l-.06-2.15H565.4V131.23l-1.95.22-.41.05a9.13,9.13,0,0,1-1.38.13h-13Zm-17-4.4a1.3,1.3,0,0,0,.47.18c8.68.06,17.53,0,26.09,0H561V7.81H532.74c.15,6.37.09,12.78,0,19-.14,15.31-.29,31.15,2.68,46.5l1.42,7.31-5.24-5.55a8.85,8.85,0,0,1-1.3-1.87c-.67-1.22-1.32-2.45-2-3.68a85,85,0,0,0-4.25-7.5c-12.49-18.9-25.23-37.86-36.19-54.16a1.52,1.52,0,0,0-.51-.19c-10.47-.06-21.14,0-31.45,0h-2.69V127.36H481.4v-5q0-26.22,0-52.45a37.62,37.62,0,0,0-.26-5.24c-.48-3.3-1-6.52-1.57-9.93-.23-1.34-.45-2.69-.67-4l-2.11-13.05L483.32,50l.7,1.31c1.08,2,2.12,4,3.13,6,2.19,4.25,4.44,8.65,7,12.7,10.48,16.33,21.36,32.81,31.89,48.75Z"/><path d="M228.49,64.2c-.61,12.5-2.59,24.58-9.15,35.57-11.25,18.86-28.47,28.64-51.39,29.39-10.16.33-20.06-1-29.37-5.07-14.17-6.16-24.49-16.11-30.06-29.8-8-19.71-8.09-39.75.75-59.18C118.88,14,136.4,2.83,160.81,1.49c11.34-.63,22.41.49,32.73,5.22,17.7,8.09,28.31,21.58,32.46,39.55C227.35,52.14,227.69,58.22,228.49,64.2Zm-43.76-.45c-.25-4.19-.34-8.4-.78-12.57a33.23,33.23,0,0,0-4.43-14.36,16,16,0,0,0-25.88-1.57,26.94,26.94,0,0,0-5.23,11.27A91.49,91.49,0,0,0,147,77.47c.61,5.66,1.8,11.21,4.95,16.18C155.33,99,160.4,101.41,167,101a15,15,0,0,0,13.23-8.68A25.91,25.91,0,0,0,182,87.62C184.18,79.8,184.46,71.79,184.73,63.75Z"/><path d="M386.56,133.55a66.47,66.47,0,0,1-27.9-5.73C343.44,121,333,109.94,327.47,95.11c-6.94-18.77-6.81-37.44.38-55.49,7.95-19.95,22.52-32.19,43.33-36.39C386.61.12,400.82,1.05,413.43,6,433,13.68,445.32,27.93,450,48.34a102.45,102.45,0,0,1,1.83,12.38c.2,1.83.4,3.72.65,5.56l0,.18v.18c-.5,10.07-1.94,23.17-8.67,35.09-10.73,19-27.46,29.62-49.72,31.49Q390.25,133.55,386.56,133.55Zm2-128A83.18,83.18,0,0,0,372.1,7.31C352.86,11.18,339.37,22.55,332,41.09c-6.81,17.11-6.93,34.82-.34,52.65,5.08,13.74,14.81,24,28.92,30.33,9.79,4.42,20.65,6.06,33.18,5,20.68-1.74,36.23-11.6,46.21-29.29,6.25-11.07,7.63-23,8.15-33.16-.24-1.83-.44-3.68-.63-5.48a101.12,101.12,0,0,0-1.75-11.91c-4.38-19-15.81-32.25-34-39.38A62.58,62.58,0,0,0,388.57,5.57Zm-1.23,99.86A17.28,17.28,0,0,1,372,97.24c-3.81-5.85-4.89-12.39-5.41-17.42-1.22-11.75-.73-22,1.51-31.44a29,29,0,0,1,5.62-12.1A18.44,18.44,0,0,1,389,29.6a17.78,17.78,0,0,1,14.25,8.33c3.73,6,4.69,12.58,5.17,18.87.17,2.14.13,4.29.09,6.36,0,.92,0,1.84,0,2.75.09,8-.14,16.43-2.45,24.62a27.75,27.75,0,0,1-2,5.2c-3.06,5.94-8.11,9.18-15,9.64Q388.18,105.43,387.34,105.43Zm.58-71.7a13.74,13.74,0,0,0-10.72,5.09,25.17,25.17,0,0,0-4.8,10.47c-2.14,9-2.6,18.82-1.43,30.12.47,4.59,1.45,10.52,4.78,15.65,2.95,4.53,7.2,6.55,13,6.15a12.8,12.8,0,0,0,11.34-7.31,23.89,23.89,0,0,0,1.71-4.45c2-7.28,2.4-14.66,2.3-23.5v0c0-.94,0-1.89,0-2.83a59.38,59.38,0,0,0-.07-6c-.44-5.78-1.3-11.84-4.57-17.05a13.4,13.4,0,0,0-10.72-6.29Z"/><path d="M37.84,3.33V53.72l.36.2c.4-.51.83-1,1.21-1.54Q56.21,28.65,73,4.9A3.61,3.61,0,0,1,76.4,3.16c10.52.07,21,0,31.57,0h2.38c-.64.93-1,1.55-1.49,2.15Q93.62,26.16,78.35,47a2.76,2.76,0,0,0-.25,3.42q19.68,37.42,39.25,74.9c.29.57.56,1.14.93,1.91-.73,0-1.3.11-1.86.11-13.43,0-26.85,0-40.28,0a2.63,2.63,0,0,1-2.8-1.79c-6.9-14.37-13.88-28.7-20.83-43-.3-.62-.63-1.22-1-2-4.5,6-8.85,11.86-13.13,17.73a3.84,3.84,0,0,0-.43,2.18c0,8.22,0,16.43,0,24.65v2.17H0V3.33Z"/><path d="M671.83,131.51H568.7V3.63h103V36.12h-59v14h47.65V81.61H612.69V97.94h12.64c13.68,0,27.83,0,41.74,0A5.19,5.19,0,0,1,670.73,99a4.43,4.43,0,0,1,1.15,3.43c-.09,6-.07,12.21-.06,18.17,0,2.21,0,4.43,0,6.64Zm-98.72-4.16h94.31v-.1c0-2.21,0-4.42,0-6.63,0-6,0-12.15.06-18.23a2.92,2.92,0,0,0,0-.32h-.38c-13.91.06-28.06,0-41.75,0H608.28V77.44H655.9V54.25H608.26V32h59V7.8H573.11Z"/><path d="M333.44,131.51H220.36l-.26-1.8c0-.08,0-.17,0-.26a6.36,6.36,0,0,1-.12-1.1v-3.78c0-5.72,0-11.63.05-17.46a6.42,6.42,0,0,1,1.51-3.77Q243.73,75.91,266,48.52l9.93-12.22H224.46V3.61H331.84v9.5c0,4.68,0,9.51,0,14.26a7.66,7.66,0,0,1-1.8,5.12Q307.81,60.27,285.6,88.1l-8.11,10.14h55.95Zm-109.1-4.16H329V102.41H268.7L272.14,98c.52-.66.94-1.2,1.38-1.74l8.55-10.71Q304.3,57.78,326.55,30a3.65,3.65,0,0,0,.91-2.56c-.06-4.77,0-9.62,0-14.31V7.77H228.87V32.13h55.68l-2.46,3.29-.62.83c-.36.5-.65.88-1,1.25l-11,13.55Q247.24,78.45,225,105.87a2.65,2.65,0,0,0-.61,1.29c-.07,5.79,0,11.69,0,17.4Z"/></g></g></svg>